<?xml version="1.0" standalone="no"?>
<!DOCTYPE svg PUBLIC "-//W3C//DTD SVG 20010904//EN"
 "http://www.w3.org/TR/2001/REC-SVG-20010904/DTD/svg10.dtd">
<svg version="1.0" xmlns="http://www.w3.org/2000/svg"
 width="300.000000pt" height="300.000000pt" viewBox="0 0 300.000000 300.000000"
 preserveAspectRatio="xMidYMid meet">
<metadata>
Created by potrace 1.14, written by Peter Selinger 2001-2017
</metadata>
<g transform="translate(0.000000,300.000000) scale(0.100000,-0.100000)"
fill="#000000" stroke="none">
<path d="M1164 1811 c-117 -11 -324 -44 -324 -51 0 -4 30 -13 68 -20 60 -11
77 -10 147 6 123 28 432 25 575 -5 173 -37 280 -80 280 -115 0 -18 -5 -19
-117 -11 -166 12 -247 12 -251 0 -7 -20 61 -38 234 -60 71 -9 131 -18 134 -20
4 -2 81 -7 171 -10 365 -13 560 -33 634 -65 11 -4 34 -13 50 -18 17 -6 39 -13
50 -17 29 -10 95 -16 106 -9 28 17 -84 94 -136 94 -8 0 -15 5 -15 10 0 6 -12
10 -27 10 -30 1 -111 21 -128 32 -6 4 -37 7 -68 7 -32 0 -70 2 -85 6 -15 3
-85 7 -157 10 -71 2 -135 4 -142 5 -7 0 -18 12 -25 28 -7 15 -23 28 -36 30
-12 2 -22 8 -22 13 0 5 -8 9 -18 9 -10 0 -26 6 -37 14 -19 13 -187 74 -225 81
-10 2 -28 9 -39 15 -12 6 -21 9 -21 6 0 -3 -21 2 -47 11 -55 18 -392 27 -529
14z"/>
<path d="M538 1735 c-2 -1 -57 -6 -123 -10 -103 -6 -142 -9 -177 -14 -3 -1
-35 -67 -70 -148 -56 -132 -63 -155 -63 -213 0 -75 17 -109 68 -140 64 -40 67
-36 65 113 -1 113 2 139 19 177 27 61 64 95 132 122 48 19 75 22 191 23 196 0
369 -27 600 -94 161 -47 179 -51 256 -56 55 -4 96 6 82 20 -4 4 -33 9 -65 11
-76 6 -263 65 -382 120 -104 49 -175 70 -266 79 -63 6 -263 14 -267 10z"/>
<path d="M510 1410 c0 -10 4 -21 9 -24 5 -3 33 -49 62 -101 35 -61 60 -95 71
-95 10 0 28 20 44 48 15 26 38 65 53 87 56 87 57 95 11 95 -31 0 -45 -15 -79
-82 -13 -27 -27 -48 -30 -48 -3 0 -22 30 -42 67 -31 59 -39 67 -67 69 -25 2
-32 -1 -32 -16z"/>
<path d="M425 1388 c-23 -27 -105 -178 -105 -193 0 -4 15 -5 33 -3 27 2 36 11
58 51 14 26 33 55 41 63 14 14 17 13 26 -15 12 -34 3 -46 -27 -36 -21 6 -41
-18 -41 -49 0 -13 15 -16 95 -16 52 0 95 3 95 6 0 19 -105 206 -120 214 -26
14 -25 14 -55 -22z"/>
<path d="M828 1410 c-9 -6 -23 -23 -31 -38 -45 -86 -80 -148 -88 -156 -17 -18
-9 -26 27 -26 27 0 37 5 41 20 3 11 10 20 15 20 5 0 6 -9 3 -20 -6 -19 -2 -20
72 -20 94 0 107 7 97 46 -4 16 -10 31 -13 34 -3 3 -21 34 -40 70 -43 81 -51
88 -83 70z m40 -124 c13 -30 7 -36 -35 -36 l-34 0 18 30 c21 36 36 38 51 6z"/>
<path d="M995 1410 c-2 -3 -5 -53 -6 -111 l-2 -104 84 0 84 0 3 28 c4 29 2 30
-65 27 -29 -1 -44 3 -45 12 -1 13 -5 76 -7 128 -1 19 -6 26 -22 26 -11 0 -22
-3 -24 -6z"/>
<path d="M1220 1403 c-52 -36 -59 -59 -39 -139 14 -54 45 -74 114 -74 68 0
111 22 130 66 18 45 12 90 -18 128 -19 23 -31 27 -92 32 -57 4 -75 2 -95 -13z
m143 -67 c4 -6 6 -24 5 -41 -3 -26 -9 -31 -41 -39 -23 -6 -48 -6 -65 0 -23 8
-27 15 -27 49 0 36 3 40 30 46 37 7 87 0 98 -15z"/>
<path d="M1461 1406 c-8 -9 -11 -48 -9 -112 l3 -99 29 0 c28 0 29 2 29 48 0
26 2 47 6 47 4 0 28 -23 54 -51 34 -37 52 -50 69 -47 22 3 23 6 23 113 l0 110
-30 0 c-29 0 -30 -1 -33 -53 l-3 -52 -55 55 c-60 59 -66 62 -83 41z"/>
<path d="M1845 1393 c-14 -15 -25 -31 -25 -35 0 -3 -18 -37 -40 -76 -22 -38
-40 -74 -40 -81 0 -6 13 -11 29 -11 24 0 34 8 57 48 52 89 50 88 68 54 21 -41
21 -42 -17 -42 -26 0 -37 -6 -47 -25 -7 -14 -11 -27 -8 -30 3 -3 49 -4 102 -3
l98 3 -49 93 c-51 96 -76 132 -92 132 -6 0 -22 -12 -36 -27z"/>
<path d="M1920 1417 c0 -7 70 -130 82 -144 6 -7 7 -13 4 -13 -4 0 -2 -6 4 -12
5 -7 19 -25 31 -40 34 -46 47 -32 146 150 l34 62 -39 0 c-36 0 -40 -3 -72 -60
-38 -67 -40 -67 -83 10 -23 41 -29 45 -66 48 -23 2 -41 1 -41 -1z"/>
<path d="M2235 1396 c-20 -30 -12 -48 18 -44 21 3 22 -1 25 -79 l3 -83 29 0
29 0 3 83 c3 78 4 82 26 82 22 0 65 42 56 56 -2 3 -42 7 -88 8 -81 2 -86 1
-101 -23z"/>
<path d="M2455 1409 c-39 -23 -55 -52 -55 -106 0 -44 4 -56 31 -82 28 -29 35
-31 103 -31 66 0 74 2 98 28 44 47 45 137 2 179 -21 22 -148 30 -179 12z m139
-75 c13 -34 6 -63 -16 -70 -25 -9 -82 -9 -104 0 -17 7 -19 57 -2 74 19 19 114
16 122 -4z"/>
</g>
</svg>
